<?xml version="1.0" standalone="no"?>
<!DOCTYPE svg PUBLIC "-//W3C//DTD SVG 20010904//EN"
 "http://www.w3.org/TR/2001/REC-SVG-20010904/DTD/svg10.dtd">
<svg version="1.0" xmlns="http://www.w3.org/2000/svg"
 width="1500.000000pt" height="1500.000000pt" viewBox="0 0 1500.000000 1500.000000"
 preserveAspectRatio="xMidYMid meet">
<metadata>
Created by potrace 1.11, written by Peter Selinger 2001-2013
</metadata>
<g transform="translate(0.000000,1500.000000) scale(0.100000,-0.100000)"
fill="#000000" stroke="none">
<path d="M6794 12441 c-113 -112 -183 -239 -184 -333 0 -35 -2 -37 -37 -43
-142 -25 -440 -100 -552 -139 -24 -9 -47 -16 -52 -16 -4 0 7 26 26 58 46 76
84 190 92 274 5 63 4 71 -17 93 -47 51 -136 21 -233 -77 -113 -114 -207 -363
-167 -438 9 -17 4 -22 -42 -42 -113 -47 -389 -190 -517 -267 -74 -44 -136 -80
-137 -78 -2 1 6 68 16 147 26 193 26 225 -2 244 -64 45 -156 0 -206 -99 -47
-95 -62 -300 -28 -388 10 -27 17 -49 15 -51 -119 -84 -312 -240 -412 -334 -32
-30 -60 -52 -63 -49 -3 2 4 58 16 124 25 150 25 178 0 203 -41 41 -142 13
-197 -55 -62 -75 -84 -258 -49 -424 l15 -72 -112 -128 c-128 -145 -242 -292
-339 -435 l-68 -100 0 61 c0 72 -22 194 -45 249 -25 60 -52 84 -96 84 -83 0
-129 -83 -129 -235 0 -130 41 -251 109 -324 17 -18 31 -35 31 -38 0 -3 -34
-66 -75 -141 -41 -76 -104 -202 -140 -282 -48 -108 -65 -137 -65 -114 0 38
-31 159 -60 237 -18 49 -28 61 -57 73 -72 30 -104 -26 -104 -184 0 -49 7 -120
16 -158 19 -84 73 -195 102 -208 19 -9 19 -12 -18 -126 -46 -141 -100 -353
-130 -510 -26 -138 -33 -157 -48 -116 -69 180 -115 248 -181 266 -47 13 -102
-6 -120 -40 -25 -46 18 -189 92 -306 43 -69 111 -136 161 -160 l33 -16 0 -308
-1 -308 -48 42 c-71 60 -138 108 -190 136 -39 20 -49 22 -71 12 -25 -11 -26
-16 -26 -85 0 -69 3 -78 40 -136 70 -109 189 -208 288 -240 23 -8 42 -18 42
-22 0 -25 54 -316 80 -430 17 -74 34 -147 37 -162 l6 -29 -54 41 c-66 50 -125
71 -198 71 -146 -1 -155 -89 -24 -231 40 -42 77 -70 135 -99 44 -22 88 -40 97
-40 9 0 30 -7 46 -16 17 -9 43 -17 60 -18 29 -2 31 -5 81 -146 28 -80 76 -205
106 -278 51 -122 54 -133 35 -128 -78 23 -164 36 -245 36 -85 0 -95 -2 -117
-25 -38 -37 -32 -66 24 -118 120 -112 245 -167 397 -175 l100 -4 38 -73 c34
-67 195 -340 241 -410 18 -26 18 -28 2 -22 -78 30 -258 33 -342 5 -50 -16 -67
-55 -45 -96 22 -40 129 -106 223 -138 68 -23 102 -28 197 -30 63 -1 127 -3
142 -3 21 -1 43 -21 109 -103 46 -57 125 -151 177 -210 l94 -108 -49 0 c-98
-1 -245 -44 -286 -84 -81 -82 125 -206 343 -206 61 0 101 6 157 25 l75 25 33
-27 c18 -16 73 -62 122 -104 48 -42 135 -111 192 -154 l103 -79 -99 -22 c-110
-24 -245 -74 -274 -100 -25 -22 -24 -69 0 -93 27 -27 77 -36 191 -36 131 0
238 36 351 117 14 9 36 0 125 -52 60 -35 169 -94 242 -130 l132 -67 -75 -37
c-93 -46 -205 -148 -205 -187 0 -43 28 -59 104 -59 131 0 262 52 361 142 l52
48 114 -39 c63 -21 165 -51 227 -66 l113 -29 -61 -22 c-66 -24 -76 -30 -138
-88 -77 -72 -94 -140 -48 -193 22 -25 31 -28 83 -28 85 1 159 40 252 132 l75
74 229 -7 228 -7 -39 -41 c-50 -52 -72 -95 -72 -142 0 -30 8 -45 44 -80 38
-39 49 -44 88 -44 87 0 181 90 253 241 l36 77 87 6 c48 3 134 9 191 12 l103 7
-36 -54 c-41 -62 -83 -160 -92 -216 -4 -30 -1 -44 16 -66 47 -60 140 -19 242
107 50 63 78 128 78 185 1 54 25 66 175 86 72 9 177 25 235 35 58 10 107 16
109 14 2 -2 -15 -24 -38 -50 -51 -58 -101 -157 -101 -200 0 -72 88 -125 165
-98 80 27 159 146 193 287 14 59 24 80 45 98 19 14 94 38 220 70 106 27 213
55 240 63 26 8 47 13 47 10 0 -2 -14 -33 -31 -67 -56 -109 -99 -218 -99 -247
0 -61 82 -80 142 -32 107 86 182 214 212 361 l12 64 140 53 c76 28 186 72 244
97 58 25 106 44 107 43 1 -1 -4 -38 -12 -81 -8 -44 -14 -129 -15 -188 0 -101
1 -109 25 -132 27 -28 51 -31 98 -11 51 21 94 78 118 157 18 61 21 87 17 202
-3 73 -7 139 -9 146 -3 10 16 26 51 45 30 16 117 67 194 113 132 79 138 82
132 56 -43 -206 -27 -287 64 -314 80 -24 165 35 195 134 28 92 28 248 0 359
-5 20 10 36 112 120 65 54 136 113 158 132 l40 34 0 -76 c1 -119 41 -172 132
-172 45 0 77 20 98 60 21 41 38 226 32 350 l-5 104 72 86 c39 47 101 125 136
173 l65 88 7 -78 c9 -91 29 -126 76 -131 17 -2 41 2 52 8 32 17 78 124 91 212
11 70 10 85 -9 165 -12 49 -22 99 -22 111 0 12 22 63 49 114 67 127 135 285
197 463 43 120 55 145 60 126 4 -14 21 -52 38 -85 57 -112 124 -113 159 -1 36
115 7 271 -75 397 l-41 63 17 90 c28 154 47 285 59 410 l13 120 41 -75 c60
-110 91 -131 150 -103 118 56 91 219 -70 433 -55 72 -63 88 -56 108 7 18 4 28
-14 46 -23 23 -24 28 -30 290 l-6 266 32 -31 c46 -44 128 -81 174 -77 l38 3 3
75 c2 71 1 78 -35 139 -37 62 -221 261 -242 261 -5 0 -13 15 -16 33 -3 17 -14
88 -26 157 -11 69 -27 156 -35 193 -8 38 -14 71 -14 73 0 3 15 -4 34 -15 47
-29 144 -62 184 -63 43 0 82 35 82 75 0 23 -19 48 -98 126 -83 84 -111 105
-190 143 l-93 46 -55 158 c-30 88 -58 167 -61 176 -4 13 11 10 74 -18 113 -49
134 -51 169 -21 35 31 37 81 6 144 -48 93 -164 160 -298 170 l-70 6 -52 101
c-28 55 -72 136 -96 179 -31 55 -40 77 -28 72 61 -24 189 -47 265 -49 82 -1
90 1 108 23 10 13 19 38 19 56 0 29 -8 40 -57 79 -117 93 -275 151 -438 163
l-90 6 -75 99 c-41 55 -112 142 -157 193 l-81 93 122 -5 c145 -7 188 4 217 51
43 70 9 141 -83 172 -89 29 -313 34 -439 9 -35 -7 -40 -4 -110 61 -41 37 -115
102 -165 144 l-92 77 50 13 c130 33 176 165 84 238 -58 45 -234 53 -396 18
-39 -8 -69 -10 -75 -5 -5 5 -17 9 -26 9 -10 0 -60 26 -111 58 -51 32 -132 81
-180 108 -49 27 -88 51 -88 54 0 3 28 20 63 37 72 38 152 104 160 132 7 28
-20 76 -51 91 -16 7 -86 15 -168 18 -158 5 -270 -11 -360 -54 -28 -13 -54 -24
-58 -24 -4 0 -80 29 -169 64 -89 35 -201 77 -249 92 -49 15 -88 31 -88 34 0 3
31 21 70 40 93 45 135 88 135 140 0 52 -31 91 -84 109 -37 12 -51 11 -109 -3
-82 -20 -204 -78 -297 -140 -56 -38 -76 -47 -100 -42 -16 3 -85 16 -152 30
-120 25 -321 58 -434 71 l-55 6 92 93 c104 103 123 136 100 171 -26 39 -63 45
-146 24 -170 -43 -333 -133 -413 -229 -26 -30 -26 -30 -129 -30 -111 -1 -380
-15 -465 -26 l-52 -6 40 78 c45 91 69 177 69 250 0 61 -20 84 -72 84 -31 0
-46 -10 -114 -79z m824 -493 c40 -84 106 -164 194 -238 80 -66 113 -75 149
-39 38 38 23 91 -89 311 -2 4 12 5 30 3 182 -25 271 -38 374 -56 l121 -22 11
-41 c17 -63 87 -161 156 -217 68 -56 206 -129 242 -129 35 0 64 34 64 74 0 37
-13 57 -113 165 -32 34 -56 65 -53 68 7 7 252 -68 413 -127 l140 -52 7 -67
c12 -137 93 -316 189 -418 39 -41 83 -44 117 -8 21 23 23 30 17 102 -4 43 -15
108 -26 146 l-20 67 55 0 c43 0 70 -8 133 -39 94 -48 251 -138 342 -196 l67
-43 -18 -53 c-26 -77 -34 -174 -20 -265 15 -98 65 -255 92 -284 28 -30 84 -24
110 11 19 25 19 31 4 229 -8 112 -14 205 -12 207 1 2 23 -1 49 -6 34 -6 68
-26 134 -77 115 -90 252 -205 282 -238 l24 -25 -28 -83 c-47 -145 -44 -399 7
-463 25 -32 67 -33 96 -2 29 31 69 190 78 309 l7 93 84 -90 c46 -50 132 -148
190 -219 l106 -128 -17 -27 c-36 -56 -75 -139 -92 -197 -23 -74 -24 -268 -3
-329 26 -74 104 -74 146 0 33 57 82 187 102 269 l17 69 60 -94 c34 -52 87
-140 118 -197 l58 -103 -40 -52 c-53 -69 -78 -121 -101 -209 -35 -132 -36
-154 -7 -183 14 -14 35 -25 46 -25 29 0 120 89 171 167 l43 66 19 -44 c11 -24
44 -111 74 -193 51 -140 53 -150 36 -160 -87 -48 -253 -275 -253 -346 0 -27
35 -60 63 -60 41 0 124 49 196 116 38 35 72 61 74 57 13 -21 97 -466 97 -512
0 -11 -18 -26 -52 -42 -83 -38 -185 -146 -236 -250 -36 -72 -41 -90 -33 -112
11 -29 39 -47 73 -47 32 0 115 58 203 141 l73 70 8 -118 c4 -65 8 -219 8 -342
l1 -224 -54 -13 c-83 -22 -150 -62 -221 -134 -71 -72 -123 -162 -118 -206 2
-15 15 -36 30 -47 l27 -20 61 23 c64 24 176 87 223 127 55 45 55 50 21 -262
-14 -131 -58 -409 -70 -447 -3 -10 -25 -21 -57 -28 -125 -29 -260 -118 -327
-216 -52 -75 -38 -117 46 -134 63 -13 137 -6 207 20 26 10 47 17 47 15 0 -1
-20 -60 -44 -131 -86 -252 -247 -592 -276 -585 -8 2 -40 10 -70 18 -68 19
-220 13 -298 -11 -29 -9 -68 -31 -87 -47 -71 -63 -35 -154 73 -185 57 -17 214
-16 256 2 24 9 -31 -73 -156 -236 -132 -172 -129 -170 -175 -163 -21 3 -54 16
-73 29 -63 41 -132 57 -223 52 -95 -5 -136 -21 -155 -62 -22 -45 -3 -72 73
-107 71 -32 171 -59 223 -59 17 0 32 -2 32 -5 0 -30 -147 -174 -315 -308 l-79
-64 -52 43 c-86 70 -148 89 -289 89 -99 0 -126 -3 -148 -18 -32 -21 -42 -53
-28 -90 13 -33 135 -97 252 -131 l81 -23 -118 -75 c-66 -41 -170 -103 -231
-137 -125 -69 -132 -70 -195 -17 -96 82 -235 145 -320 146 -50 0 -62 -4 -92
-30 -45 -40 -62 -88 -46 -134 19 -59 83 -100 207 -135 l68 -18 -40 -18 c-95
-41 -314 -125 -325 -125 -7 0 -30 20 -51 44 -111 126 -388 241 -445 185 -9
-10 -18 -37 -21 -60 -9 -88 69 -175 209 -231 31 -12 56 -24 54 -25 -5 -6 -262
-78 -365 -103 -83 -20 -95 -21 -102 -7 -47 84 -190 208 -312 271 -84 44 -108
45 -141 5 -60 -71 -18 -154 138 -269 47 -35 83 -67 78 -71 -15 -15 -534 -94
-557 -85 -7 2 -28 32 -46 67 -36 67 -120 158 -190 206 -69 48 -84 49 -120 13
-29 -28 -31 -35 -25 -75 8 -64 50 -141 106 -195 l48 -47 -176 -11 c-219 -15
-222 -15 -222 1 0 6 -14 41 -30 76 -35 73 -152 197 -209 221 -29 12 -37 12
-59 -1 -89 -50 -94 -179 -10 -274 l40 -45 -205 0 -204 0 -12 57 c-17 76 -74
223 -112 290 -60 105 -108 144 -178 145 -47 0 -77 -18 -96 -59 -19 -40 -14
-73 31 -200 l32 -93 -26 6 c-15 4 -83 27 -152 51 -69 25 -132 47 -141 50 -10
3 -21 25 -28 56 -26 116 -106 265 -198 367 -49 54 -68 60 -104 31 -21 -17 -23
-27 -23 -92 0 -73 22 -163 50 -204 8 -11 14 -23 14 -28 0 -9 -199 91 -311 157
l-76 45 -7 57 c-14 116 -180 471 -244 521 -22 18 -67 16 -82 -2 -34 -41 -29
-206 9 -319 l20 -57 -32 23 c-60 43 -232 182 -317 257 -47 41 -87 76 -89 77
-2 2 4 24 13 50 39 115 30 238 -30 424 -52 158 -72 194 -111 198 -49 5 -70
-12 -81 -65 -19 -85 -24 -216 -13 -302 6 -47 10 -86 8 -87 -4 -4 -183 197
-259 292 l-65 81 23 69 c48 146 52 340 9 489 -34 116 -115 115 -174 -3 -39
-78 -52 -121 -59 -200 l-7 -67 -81 130 c-80 129 -181 308 -200 354 -8 20 -4
35 23 85 18 34 47 104 65 156 30 90 32 103 32 248 1 150 0 154 -23 173 -23 19
-67 25 -86 11 -46 -33 -119 -164 -151 -271 -18 -63 -23 -72 -32 -55 -22 41
-87 206 -133 337 l-49 139 20 28 c36 51 89 173 110 255 25 96 30 297 8 342
-15 32 -54 49 -91 39 -30 -7 -103 -103 -141 -186 l-25 -53 -10 39 c-11 42 -55
279 -65 356 -6 41 -4 48 14 58 87 47 262 320 290 453 14 69 -3 118 -49 142
-62 32 -137 -13 -231 -136 l-54 -71 -9 28 c-4 16 -5 124 -1 241 5 188 8 213
23 218 24 7 105 103 169 198 59 89 121 214 147 299 17 53 17 58 1 82 -38 59
-89 44 -199 -56 -37 -33 -67 -53 -67 -46 0 50 130 519 151 544 5 7 31 17 57
24 26 6 82 30 126 53 122 63 269 218 269 284 -1 32 -43 73 -78 73 -13 0 -72
-24 -132 -54 -59 -30 -109 -53 -110 -52 -6 5 110 224 185 349 58 99 79 126 91
121 9 -4 48 -9 86 -12 113 -7 247 48 353 143 54 49 67 79 52 119 -16 44 -48
51 -144 32 -47 -9 -111 -26 -142 -37 -32 -10 -59 -17 -61 -16 -11 11 278 365
407 501 85 88 86 89 111 73 108 -71 429 -53 520 29 39 36 15 104 -47 130 -48
20 -104 17 -227 -11 -66 -15 -116 -21 -129 -16 -18 7 -12 15 63 83 117 106
225 195 358 296 95 72 116 83 130 73 63 -46 213 -78 313 -65 139 16 261 65
272 108 9 38 -10 75 -46 91 -47 19 -179 45 -233 45 -25 0 -45 4 -45 8 0 13
200 124 370 205 203 97 269 123 285 111 7 -5 34 -26 61 -46 88 -68 355 -188
417 -188 17 0 37 10 53 27 47 51 48 121 2 170 -29 31 -165 97 -235 114 -29 7
-53 15 -53 19 0 10 268 81 439 116 l164 34 34 -39 c45 -53 224 -173 340 -228
90 -43 98 -45 122 -32 32 18 55 63 47 94 -7 28 -100 122 -184 186 -58 44 -62
49 -40 53 38 9 120 12 380 14 l246 2 30 -62z m-1267 -8700 c8 -15 8 -18 0 -14
-6 4 -16 16 -22 28 -8 15 -8 18 0 14 6 -4 16 -16 22 -28z"/>
<path d="M6460 10753 c-53 -11 -189 -83 -266 -141 -92 -70 -174 -154 -290
-297 -234 -290 -345 -457 -503 -759 -66 -124 -128 -238 -139 -253 -27 -38 -72
-130 -72 -145 0 -9 3 -9 10 2 20 32 8 -1 -41 -111 -56 -122 -66 -140 -55 -96
13 55 -7 23 -73 -115 -89 -186 -193 -449 -225 -568 -39 -147 -123 -554 -137
-664 -24 -197 20 -474 86 -540 9 -8 29 -41 46 -73 44 -84 121 -183 196 -253
127 -119 248 -150 364 -93 76 37 203 169 329 343 157 216 519 764 740 1117
107 172 195 311 197 310 5 -5 -29 -122 -38 -132 -7 -7 -8 -4 -4 8 4 9 3 17 -3
17 -33 0 -129 -352 -147 -535 -3 -38 -19 -146 -35 -240 -24 -140 -29 -200 -29
-340 0 -99 -7 -212 -16 -270 -19 -126 -19 -180 0 -291 49 -283 188 -491 382
-569 164 -66 301 -53 417 39 l39 30 -6 -164 c-8 -222 6 -525 26 -565 8 -16 28
-64 43 -105 14 -41 40 -99 56 -127 35 -63 30 -71 -7 -10 -50 80 -18 -10 40
-113 114 -202 197 -312 302 -402 285 -242 591 -187 1077 194 l70 55 50 -51
c28 -28 92 -80 141 -114 50 -34 124 -91 167 -125 42 -34 120 -89 174 -122 54
-33 129 -88 166 -122 75 -68 124 -91 158 -73 37 20 25 56 -43 128 -34 37 -116
139 -182 227 -70 93 -167 207 -231 271 -129 130 -157 179 -130 231 14 29 141
154 199 196 44 33 111 126 156 215 23 45 46 80 51 77 6 -3 7 1 4 10 -4 10 -2
15 6 13 8 -2 47 51 89 118 42 67 128 195 192 285 298 419 492 766 643 1149
129 328 171 524 164 753 -5 125 -9 154 -38 242 -34 106 -93 231 -141 301 -51
75 -144 159 -219 198 -62 33 -84 39 -154 43 -70 5 -92 2 -161 -22 -44 -14
-104 -40 -134 -57 -168 -96 -595 -494 -710 -662 -71 -102 -131 -276 -131 -376
0 -50 25 -98 56 -106 56 -14 102 27 208 189 75 113 275 316 421 425 166 124
376 222 478 222 96 0 134 -80 115 -240 -31 -257 -250 -874 -408 -1150 -69
-120 -100 -188 -100 -218 1 -13 5 -11 21 10 95 127 8 -44 -159 -312 -262 -422
-490 -752 -621 -899 -104 -118 -141 -151 -166 -151 -26 0 -70 35 -162 127 -80
80 -131 107 -185 98 -88 -15 -144 -110 -119 -204 16 -62 71 -143 148 -219 75
-73 83 -56 -68 -157 -120 -82 -242 -138 -344 -161 -68 -15 -88 -15 -139 -5
-76 16 -101 29 -152 81 -89 90 -124 194 -124 370 0 134 16 235 72 455 110 437
260 833 509 1345 61 124 106 220 100 215 -5 -6 -48 -84 -95 -175 -47 -91 -86
-161 -86 -157 0 12 192 394 263 522 91 165 216 370 344 560 130 195 106 173
-76 -70 -236 -314 -424 -612 -623 -985 -48 -91 -88 -162 -88 -158 0 15 133
295 207 438 248 473 522 851 872 1201 178 177 324 299 448 374 87 52 85 42 -3
-17 -43 -28 -105 -78 -138 -111 l-61 -59 62 50 c139 112 225 162 279 162 33 0
56 24 60 62 4 30 -2 44 -35 86 -49 62 -143 135 -217 169 -51 23 -65 25 -148
21 -99 -6 -164 -29 -253 -89 -133 -90 -306 -272 -466 -489 -206 -278 -244
-327 -337 -428 -121 -132 -215 -258 -310 -414 -110 -180 -346 -657 -425 -858
-52 -134 -76 -182 -101 -205 -17 -16 -51 -59 -75 -95 -57 -88 -169 -220 -222
-264 -24 -20 -65 -42 -91 -50 -45 -14 -47 -13 -61 8 -13 19 -29 74 -59 200 -6
24 -9 27 -18 15 -14 -21 -3 168 22 342 11 79 33 259 50 399 73 613 134 868
326 1354 90 226 93 234 60 176 -33 -60 -33 -44 1 24 15 30 30 53 35 50 4 -3 5
3 1 12 -4 12 -3 15 5 10 8 -5 10 -1 5 10 -4 10 -2 15 3 11 5 -3 10 2 10 12 0
22 100 204 130 236 12 13 19 27 15 30 -3 4 1 5 9 3 16 -3 124 148 115 162 -3
4 4 19 15 33 77 98 -102 287 -275 291 -52 1 -69 -4 -111 -29 -42 -26 -55 -43
-91 -115 -23 -46 -60 -102 -82 -124 -22 -23 -63 -86 -92 -141 -62 -118 -505
-784 -784 -1179 -255 -362 -298 -427 -300 -448 -2 -33 -482 -542 -559 -594
-64 -43 -112 -46 -126 -8 -38 100 49 581 195 1079 192 655 581 1417 925 1810
27 31 28 35 6 15 -42 -37 -211 -265 -312 -422 -111 -170 -122 -186 -88 -123
55 101 176 289 243 378 192 255 371 420 546 503 103 48 187 70 238 60 40 -7
89 -58 107 -109 9 -27 8 -28 -7 -16 -9 8 -14 10 -11 4 3 -5 22 -64 43 -129 22
-71 40 -114 44 -107 6 8 12 2 21 -19 15 -36 45 -60 75 -60 66 0 213 112 240
184 32 84 -1 142 -162 275 -184 154 -372 261 -528 301 -78 20 -255 34 -305 23z
m-212 -600 c-127 -134 -339 -493 -498 -843 -176 -385 -336 -849 -454 -1315
-61 -243 -92 -403 -110 -569 -8 -76 -18 -141 -21 -144 -16 -17 57 560 95 751
108 540 304 1025 668 1662 104 182 160 271 221 350 51 68 121 145 129 145 3 0
-10 -17 -30 -37z m983 -1370 c-12 -20 -14 -14 -5 12 4 9 9 14 11 11 3 -2 0
-13 -6 -23z m-30 -70 c-12 -20 -14 -14 -5 12 4 9 9 14 11 11 3 -2 0 -13 -6
-23z m-736 -1687 c-14 -92 -25 -199 -26 -239 0 -49 -3 -66 -9 -52 -12 28 -12
375 0 460 6 39 20 104 33 145 l22 75 3 -111 c2 -80 -4 -157 -23 -278z"/>
<path d="M6423 10114 l-48 -46 53 43 c28 23 52 44 52 46 0 8 -12 0 -57 -43z"/>
<path d="M9199 8693 c-13 -16 -12 -17 4 -4 9 7 17 15 17 17 0 8 -8 3 -21 -13z"/>
<path d="M8809 8283 c-13 -16 -12 -17 4 -4 16 13 21 21 13 21 -2 0 -10 -8 -17
-17z"/>
<path d="M8629 7963 c-13 -16 -12 -17 4 -4 9 7 17 15 17 17 0 8 -8 3 -21 -13z"/>
<path d="M8599 7923 c-13 -16 -12 -17 4 -4 9 7 17 15 17 17 0 8 -8 3 -21 -13z"/>
<path d="M8295 7410 c-9 -16 -13 -30 -11 -30 3 0 12 14 21 30 9 17 13 30 11
30 -3 0 -12 -13 -21 -30z"/>
</g>
</svg>
