<?xml version="1.0" standalone="no"?>
<!DOCTYPE svg PUBLIC "-//W3C//DTD SVG 20010904//EN"
 "http://www.w3.org/TR/2001/REC-SVG-20010904/DTD/svg10.dtd">
<svg version="1.0" xmlns="http://www.w3.org/2000/svg"
 width="1500.000000pt" height="1500.000000pt" viewBox="0 0 1500.000000 1500.000000"
 preserveAspectRatio="xMidYMid meet">
<metadata>
Created by potrace 1.11, written by Peter Selinger 2001-2013
</metadata>
<g transform="translate(0.000000,1500.000000) scale(0.100000,-0.100000)"
fill="#000000" stroke="none">
<path d="M0 7500 l0 -7500 7500 0 7500 0 0 7500 0 7500 -7500 0 -7500 0 0
-7500z m6465 4710 c156 -24 254 -55 397 -125 174 -86 317 -185 530 -366 194
-166 247 -261 203 -366 -48 -115 -251 -266 -355 -265 -54 1 -77 19 -111 87
-16 33 -27 48 -23 33 4 -17 2 -28 -4 -28 -10 0 -32 61 -91 257 -17 56 -34 110
-38 120 -4 12 1 9 15 -7 28 -33 27 -20 -2 38 -34 68 -94 119 -148 127 -77 12
-244 -38 -388 -117 -260 -141 -584 -475 -854 -883 -112 -168 -169 -259 -149
-240 5 6 52 73 103 150 216 324 447 602 585 704 197 145 207 144 26 -4 -156
-127 -219 -194 -367 -391 -352 -470 -680 -1072 -940 -1727 -150 -376 -231
-629 -344 -1072 -83 -326 -119 -501 -161 -785 -35 -244 -37 -354 -3 -391 59
-65 214 37 448 296 50 56 170 185 268 288 201 213 267 290 243 281 -15 -6 -16
-4 -7 12 18 33 259 382 536 776 413 589 937 1378 1029 1553 60 111 99 171 152
230 47 54 79 101 95 140 33 83 61 126 111 168 131 113 340 80 509 -79 71 -68
120 -146 120 -195 0 -15 -15 -49 -33 -75 -19 -27 -32 -55 -29 -62 7 -21 -88
-163 -149 -223 -57 -56 -147 -195 -208 -319 -22 -45 -26 -57 -12 -40 13 15 3
-14 -24 -71 -63 -137 -244 -597 -305 -774 -166 -486 -233 -807 -320 -1540 -22
-187 -52 -419 -65 -516 -50 -348 -70 -623 -43 -559 11 25 11 24 20 -15 38
-165 68 -278 80 -302 12 -24 19 -28 53 -26 54 4 133 44 195 100 73 66 203 223
275 333 75 116 116 164 152 179 23 10 38 35 87 149 79 186 286 603 389 787
179 321 305 501 501 715 151 165 183 204 320 395 195 270 272 368 404 515 303
338 521 473 762 471 122 -1 238 -61 375 -195 86 -84 115 -128 115 -177 0 -56
-31 -89 -85 -89 -24 0 -47 -4 -50 -10 -3 -5 -23 -14 -45 -20 -44 -12 -155 -90
-337 -240 -70 -57 -121 -96 -113 -85 38 47 253 232 331 283 47 31 94 63 105
70 10 7 3 5 -16 -4 -131 -62 -389 -264 -603 -473 -466 -455 -821 -932 -1173
-1576 -89 -162 -294 -584 -294 -602 0 -5 29 47 65 115 248 472 535 930 838
1336 125 167 351 451 368 461 5 4 -33 -51 -84 -122 -204 -279 -413 -608 -598
-941 -115 -205 -313 -592 -304 -592 2 0 21 33 41 73 49 97 320 585 401 721 83
139 180 285 241 362 26 34 56 72 65 85 50 67 -8 -22 -85 -132 -364 -520 -814
-1420 -1089 -2176 -110 -302 -250 -805 -294 -1053 -26 -149 -31 -347 -10 -455
36 -194 128 -331 265 -394 79 -36 206 -41 320 -12 111 28 301 122 436 217 169
117 163 97 58 206 -146 152 -196 238 -196 343 -1 101 63 191 151 215 80 21
143 -11 286 -149 192 -186 195 -187 300 -78 84 87 199 223 281 332 189 250
658 969 827 1266 73 130 119 219 113 219 -2 0 -21 -24 -42 -52 -55 -77 -57
-79 -50 -29 9 58 59 164 146 312 176 297 485 1162 529 1482 23 163 10 250 -43
303 -60 60 -177 52 -356 -25 -247 -106 -433 -242 -706 -516 -140 -141 -186
-194 -249 -291 -133 -202 -176 -244 -252 -244 -30 0 -46 6 -64 26 -35 38 -39
167 -9 290 63 256 214 457 630 839 353 325 527 440 729 481 279 56 548 -124
733 -490 60 -120 112 -272 133 -390 20 -115 19 -329 -1 -464 -44 -299 -190
-711 -409 -1157 -193 -392 -356 -662 -673 -1108 -99 -138 -213 -308 -253 -376
-41 -68 -89 -140 -108 -160 -18 -20 -27 -27 -20 -16 13 18 12 19 -2 8 -9 -7
-33 -50 -54 -95 -71 -153 -126 -222 -292 -364 -123 -105 -186 -177 -198 -227
-14 -54 35 -125 193 -285 111 -112 188 -202 316 -372 93 -124 196 -253 229
-287 64 -65 86 -97 87 -125 0 -21 -46 -58 -73 -58 -40 0 -106 41 -188 118 -46
43 -133 109 -194 146 -139 86 -209 137 -309 220 -44 36 -127 98 -185 138 -58
40 -133 101 -167 135 l-62 62 -98 -76 c-404 -310 -659 -435 -919 -450 -313
-18 -597 190 -857 627 -97 162 -148 266 -148 300 0 20 2 22 10 10 19 -29 10
-2 -24 71 -18 41 -41 101 -51 133 -9 32 -23 69 -31 81 -25 39 -37 275 -31 650
4 254 9 367 20 412 8 35 11 61 7 58 -4 -2 -31 -20 -59 -40 -72 -48 -144 -67
-250 -66 -213 1 -434 100 -562 252 -141 167 -227 356 -275 604 -24 123 -24
338 1 465 16 86 27 295 22 430 -5 137 2 222 36 410 35 201 50 299 62 430 13
141 118 547 166 643 30 59 39 69 53 58 9 -8 17 8 30 56 9 36 15 67 13 69 -2 3
-78 -114 -167 -258 -602 -969 -1140 -1768 -1376 -2041 -90 -103 -196 -192
-281 -233 -51 -26 -69 -29 -148 -28 -99 0 -142 12 -232 65 -72 43 -202 166
-273 259 -30 40 -79 102 -109 139 -30 36 -42 55 -26 41 l28 -25 -33 60 c-18
33 -41 67 -50 75 -36 32 -80 129 -104 230 -69 293 -63 516 25 920 22 102 55
259 74 350 43 205 81 341 149 523 111 297 290 692 341 752 l25 30 -6 -30 c-11
-47 -1 -30 70 125 36 80 57 134 45 121 l-20 -25 6 30 c13 52 52 130 118 233
35 55 120 210 188 343 170 337 261 484 487 788 287 386 496 618 677 753 142
106 286 170 425 191 59 8 123 5 245 -14z m2955 -3824 c0 -2 -8 -10 -17 -17
-16 -13 -17 -12 -4 4 13 16 21 21 21 13z"/>
<path d="M5839 11353 l-24 -28 28 24 c15 14 27 26 27 28 0 8 -8 1 -31 -24z"/>
<path d="M5789 11293 l-24 -28 28 24 c15 14 27 26 27 28 0 8 -8 1 -31 -24z"/>
<path d="M5717 11203 c-212 -279 -672 -1121 -876 -1605 -245 -581 -390 -1099
-465 -1658 -23 -173 -41 -346 -30 -290 76 379 138 636 239 985 154 537 327
1016 530 1470 158 354 426 840 585 1059 76 105 87 130 17 39z"/>
<path d="M5420 10440 c-6 -11 -8 -20 -6 -20 3 0 10 9 16 20 6 11 8 20 6 20 -3
0 -10 -9 -16 -20z"/>
<path d="M4332 7590 c0 -19 2 -27 5 -17 2 9 2 25 0 35 -3 9 -5 1 -5 -18z"/>
<path d="M4322 7510 c0 -19 2 -27 5 -17 2 9 2 25 0 35 -3 9 -5 1 -5 -18z"/>
<path d="M4312 7410 c0 -19 2 -27 5 -17 2 9 2 25 0 35 -3 9 -5 1 -5 -18z"/>
<path d="M6165 7320 c-15 -50 -33 -130 -41 -178 -18 -113 -28 -516 -16 -612
l9 -75 2 60 c1 70 24 250 47 375 13 74 39 508 30 517 -1 2 -15 -38 -31 -87z"/>
<path d="M4302 7305 c0 -16 2 -22 5 -12 2 9 2 23 0 30 -3 6 -5 -1 -5 -18z"/>
<path d="M7291 4060 c12 -22 24 -38 26 -36 4 4 -37 76 -44 76 -2 0 6 -18 18
-40z"/>
</g>
</svg>
